<svg xmlns="http://www.w3.org/2000/svg" width="122.277" height="100" viewBox="0 0 122.277 100"><defs><style>.a{fill:#2b3b36;}</style></defs><path class="a" d="M209.559,425.335a58.022,58.022,0,0,0,27.383-2.692,70.164,70.164,0,0,0,21.2-12.563,96.131,96.131,0,0,0,17.328-19.45c5.129-7.542,9.716-16.051,10.493-25.3.415-4.917-2.234-11.884,2.456-15.283,4.106-2.974,7.387-6.114,9.541-10.8.236-.518-.16-1.245-.8-1.037a119.888,119.888,0,0,1-13.9,3.62c.184.429.363.863.547,1.292a27.129,27.129,0,0,0,11.12-14.74c.2-.651-.514-1.028-1.037-.8l-6.816,2.984c-2.041.9-5.737,3.267-7.971,2.461-1.527-.556-3.069-2.291-4.492-3.139a28.021,28.021,0,0,0-3.979-1.952,28.483,28.483,0,0,0-19.761-.552,25.974,25.974,0,0,0-14.052,12.12,26.407,26.407,0,0,0-3.012,9.1c-.344,2.541-.641,5.831.519,8.207l.8-1.037c-4.2-1.678-8.768-1.57-13.1-2.744-4.832-1.31-9.31-4-13.722-6.317-8.363-4.384-16.593-9.112-23.655-15.448a.719.719,0,0,0-1.183.311,29.135,29.135,0,0,0,7.7,32.206c.231-.4.457-.787.688-1.183a43.72,43.72,0,0,1-10.21-3.121.718.718,0,0,0-1.037.424c-3.446,13.406,8.259,23.381,19.912,26.7.061-.462.127-.924.189-1.391q-5.218-.007-10.437-.019a.716.716,0,0,0-.684.9,25.689,25.689,0,0,0,22.561,17c-.118-.438-.236-.877-.358-1.32a47.58,47.58,0,0,1-35.119,9.3c-.533-.071-1.207.471-.8,1.037,3.205,4.459,8.033,6.92,13.147,8.589a117.942,117.942,0,0,0,20.35,4.606c.891.123,1.273-1.24.377-1.362a128.981,128.981,0,0,1-18.285-3.969c-5.44-1.574-10.955-3.828-14.368-8.575l-.8,1.037A48.971,48.971,0,0,0,212.51,403a.716.716,0,0,0-.358-1.32,24.226,24.226,0,0,1-21.2-15.961c-.226.3-.452.6-.684.9q5.218.007,10.437.019a.711.711,0,0,0,.189-1.391c-10.88-3.1-22.17-12.327-18.922-24.965l-1.037.424a45.381,45.381,0,0,0,10.55,3.262c.632.113,1.268-.674.688-1.183a27.759,27.759,0,0,1-7.335-30.829l-1.183.311c7.151,6.416,15.466,11.229,23.942,15.669,4.158,2.183,8.334,4.634,12.817,6.091,4.686,1.518,9.734,1.273,14.335,3.111.627.25,1.037-.547.8-1.037-1.386-2.843-.5-7.524.292-10.418a25.8,25.8,0,0,1,4.012-8.33,24.365,24.365,0,0,1,17.4-9.932,27.674,27.674,0,0,1,19.417,5.591c2.107,1.6,3.46,2.1,6.006,1.018,4-1.692,7.957-3.479,11.931-5.218l-1.037-.8A25.613,25.613,0,0,1,283.1,341.9a.71.71,0,0,0,.547,1.292,120.808,120.808,0,0,0,13.9-3.62l-.8-1.037c-2.121,4.62-5.3,7.552-9.32,10.5-2.951,2.164-3.356,5.28-3.1,8.735a39.147,39.147,0,0,1-.886,13.67A55.308,55.308,0,0,1,277.393,385c-8.744,14.684-21.538,27.973-37.367,34.9a57.028,57.028,0,0,1-30.466,4.021C208.659,423.807,208.664,425.222,209.559,425.335Z" transform="translate(-175.752 -325.88)"/></svg>